<svg id="Слой_1" xmlns="http://www.w3.org/2000/svg" viewBox="0 0 50.12 41"><defs><style>.cls-1{fill:#a67c52;}.cls-1,.cls-2,.cls-3,.cls-4,.cls-5{stroke:#000;stroke-miterlimit:10;}.cls-1,.cls-2{stroke-width:0.16px;}.cls-2{fill:#603813;}.cls-3{fill:none;stroke-width:1.07px;}.cls-4{stroke-width:0.06px;}.cls-5{stroke-width:0.1px;}</style></defs><title>logo</title><ellipse class="cls-1" cx="35.21" cy="13.58" rx="12.54" ry="11.76"/><circle class="cls-2" cx="29.8" cy="6.84" r="1.45"/><circle class="cls-2" cx="31.39" cy="11.32" r="1.45"/><circle class="cls-2" cx="35.21" cy="5.39" r="1.45"/><circle class="cls-2" cx="25.45" cy="12.88" r="1.45"/><circle class="cls-2" cx="28.78" cy="19.2" r="1.45"/><circle class="cls-2" cx="37.33" cy="9.87" r="1.45"/><circle class="cls-2" cx="35.21" cy="15.47" r="1.45"/><circle class="cls-2" cx="34.15" cy="22.1" r="1.45"/><circle class="cls-2" cx="40.44" cy="19.2" r="1.45"/><circle class="cls-2" cx="42.97" cy="7.38" r="1.45"/><circle class="cls-2" cx="42.97" cy="13.99" r="1.45"/><circle class="cls-3" cx="35.21" cy="14.33" r="13.47"/><polygon class="cls-4" points="18.65 8.66 10.17 10.19 13.53 15.59 18.65 8.66"/><line class="cls-3" x1="13.6" y1="11.64" x2="23.17" y2="6.01"/><path class="cls-3" d="M430.24,150.84C430.24,168,417.76,172,412,172" transform="translate(-380.71 -135.85)"/><circle class="cls-3" cx="34.66" cy="15.47" r="14.93"/><rect class="cls-5" x="381.62" y="148.63" width="11.76" height="6.58" transform="matrix(-0.85, 0.53, -0.53, -0.85, 416.03, -59.85)"/><path class="cls-3" d="M429.84,153.61c0,17.16-12.48,20.6-18.29,20.6" transform="translate(-380.71 -135.85)"/><path class="cls-3" d="M429,157.1c0,17.15-11.66,19.23-17.47,19.23" transform="translate(-380.71 -135.85)"/></svg>
