<svg id="Слой_1" xmlns="http://www.w3.org/2000/svg" viewBox="0 0 192.25 192.25"><defs><style>.cls-1{fill:#a67c52;}.cls-1,.cls-2,.cls-3,.cls-4,.cls-5,.cls-6,.cls-7,.cls-8,.cls-9{stroke:#000;stroke-miterlimit:10;}.cls-1,.cls-2{stroke-width:0.64px;}.cls-2{fill:#603813;}.cls-3,.cls-5,.cls-6,.cls-7,.cls-9{fill:none;}.cls-3{stroke-width:4.06px;}.cls-4{stroke-width:0.24px;}.cls-5{stroke-width:4.13px;}.cls-6{stroke-width:4.04px;}.cls-7{stroke-width:4.07px;}.cls-8{stroke-width:0.35px;}.cls-9{stroke-width:0.25px;}</style></defs><title>logo192</title><ellipse class="cls-1" cx="136.37" cy="69.06" rx="48.62" ry="45.58"/><circle class="cls-2" cx="115.41" cy="42.93" r="5.62"/><circle class="cls-2" cx="121.56" cy="60.29" r="5.62"/><circle class="cls-2" cx="136.37" cy="37.31" r="5.62"/><circle class="cls-2" cx="98.54" cy="66.33" r="5.62"/><circle class="cls-2" cx="111.46" cy="90.85" r="5.62"/><circle class="cls-2" cx="144.57" cy="54.66" r="5.62"/><circle class="cls-2" cx="136.37" cy="76.36" r="5.62"/><circle class="cls-2" cx="132.27" cy="102.09" r="5.62"/><circle class="cls-2" cx="156.66" cy="90.85" r="5.62"/><circle class="cls-2" cx="166.46" cy="45" r="5.62"/><circle class="cls-2" cx="166.46" cy="70.62" r="5.62"/><ellipse class="cls-3" cx="134.57" cy="71.95" rx="50.43" ry="52.23"/><polygon class="cls-4" points="72.16 49.97 39.3 55.92 52.34 76.84 72.16 49.97"/><line class="cls-5" x1="52.6" y1="61.52" x2="89.68" y2="39.72"/><path class="cls-6" d="M188.48,74.39c0,66.51-46.12,82.07-67.58,82.07" transform="translate(0.13 0.13)"/><ellipse class="cls-7" cx="132.47" cy="76.36" rx="56.13" ry="57.89"/><rect class="cls-8" x="6.62" y="64.84" width="42" height="25.51" transform="translate(92.2 128.98) rotate(148.08)"/><path class="cls-5" d="M186.35,87.15c0,66.52-48.38,79.87-70.88,79.87" transform="translate(0.13 0.13)"/><path class="cls-5" d="M184.77,98.62c0,66.52-45.22,74.55-67.73,74.55" transform="translate(0.13 0.13)"/><rect class="cls-9" x="0.13" y="0.13" width="192" height="192"/></svg>
